<svg xmlns="http://www.w3.org/2000/svg" xmlns:xlink="http://www.w3.org/1999/xlink" width="117" height="68" fill="none" xmlns:v="https://vecta.io/nano"><g fill="#ecb9d7" stroke="#2f6252" stroke-width="2"><use xlink:href="#B"/><use xlink:href="#B"/><use xlink:href="#C"/><use xlink:href="#C"/><use xlink:href="#D"/><use xlink:href="#D"/><use xlink:href="#E"/><use xlink:href="#E"/><use xlink:href="#F"/><use xlink:href="#F"/><use xlink:href="#G"/><use xlink:href="#G"/><use xlink:href="#H"/><use xlink:href="#H"/><use xlink:href="#I"/><use xlink:href="#I"/><use xlink:href="#J"/><use xlink:href="#J"/></g><defs ><path id="B" d="M61.915 55.197l.901-1.199 4.892-5.861c4.1-4.503 9.538-9.487 15.082-11.784s12.914-2.618 18.998-2.332c3.023.142 5.691.431 7.604.685l1.484.211-.901 1.199a91.06 91.06 0 0 1-4.892 5.861c-4.1 4.503-9.538 9.487-15.083 11.784s-12.914 2.618-18.997 2.332c-3.023-.142-5.691-.431-7.604-.685l-1.484-.211z"/><path id="C" d="M54.698 55.197l-1.484.211-7.604.685c-6.083.285-13.452-.036-18.997-2.332S15.63 46.479 11.53 41.976a90.93 90.93 0 0 1-4.892-5.861l-.901-1.199 1.484-.211c1.912-.254 4.581-.543 7.604-.685 6.083-.285 13.452.036 18.997 2.332s10.983 7.281 15.082 11.784a90.96 90.96 0 0 1 4.893 5.861l.901 1.199z"/><path id="D" d="M57.853 54.773l-.211-1.484-.685-7.604c-.285-6.083.036-13.452 2.333-18.997s7.281-10.983 11.784-15.082c2.238-2.037 4.329-3.72 5.861-4.892l1.199-.901.211 1.484a90.99 90.99 0 0 1 .685 7.604c.285 6.083-.036 13.452-2.332 18.997S69.416 44.881 64.913 48.98a90.99 90.99 0 0 1-5.861 4.892l-1.199.901z"/><path id="E" d="M56.097 56.732l-1.291.763-6.763 3.543c-5.511 2.591-12.442 5.115-18.444 5.115s-12.933-2.524-18.444-5.115c-2.738-1.288-5.093-2.576-6.763-3.543l-1.291-.763 1.291-.763c1.67-.966 4.024-2.255 6.763-3.542 5.511-2.591 12.442-5.115 18.444-5.115s12.933 2.524 18.444 5.115c2.738 1.288 5.093 2.576 6.763 3.542l1.291.763z"/><path id="F" d="M112.879 56.732l-1.291.763-6.763 3.543c-5.511 2.591-12.442 5.115-18.444 5.115s-12.933-2.524-18.444-5.115c-2.738-1.288-5.093-2.576-6.763-3.543l-1.291-.763 1.291-.763c1.67-.966 4.024-2.255 6.763-3.542 5.511-2.591 12.442-5.115 18.444-5.115s12.933 2.524 18.444 5.115a90.92 90.92 0 0 1 6.763 3.542l1.291.763z"/><path id="G" d="M57.613 55.101l-1.199-.901-5.861-4.892c-4.503-4.1-9.487-9.538-11.784-15.083s-2.618-12.914-2.332-18.997c.142-3.023.431-5.691.685-7.604l.211-1.484 1.199.901a90.95 90.95 0 0 1 5.861 4.892c4.503 4.1 9.487 9.538 11.784 15.082s2.618 12.914 2.332 18.997a90.95 90.95 0 0 1-.685 7.604l-.211 1.484z"/><path id="H" d="M56.55 55.443l-1.452-.373-7.287-2.277c-5.729-2.064-12.415-5.181-16.659-9.425s-7.361-10.929-9.425-16.659a90.99 90.99 0 0 1-2.277-7.287l-.373-1.452 1.452.373a90.99 90.99 0 0 1 7.287 2.277c5.729 2.064 12.415 5.181 16.659 9.425s7.361 10.93 9.425 16.659a90.94 90.94 0 0 1 2.277 7.287l.373 1.452z"/><path id="I" d="M59.247 55.443l.373-1.452 2.277-7.287c2.064-5.729 5.181-12.415 9.425-16.659s10.929-7.36 16.659-9.425a90.98 90.98 0 0 1 7.287-2.277l1.452-.373-.373 1.452a90.99 90.99 0 0 1-2.277 7.287c-2.064 5.729-5.181 12.415-9.425 16.659s-10.929 7.361-16.659 9.425c-2.847 1.026-5.423 1.78-7.287 2.277l-1.452.373z"/><path id="J" d="M57.94 54.889l-.763-1.291-3.543-6.763c-2.591-5.511-5.115-12.442-5.115-18.444s2.524-12.933 5.115-18.444c1.288-2.738 2.576-5.093 3.543-6.763l.763-1.291.763 1.291c.966 1.67 2.255 4.024 3.542 6.763 2.591 5.511 5.115 12.442 5.115 18.444s-2.524 12.933-5.115 18.444c-1.288 2.738-2.576 5.093-3.542 6.763l-.763 1.291z"/></defs></svg>