<svg width="117" height="68" viewBox="0 0 117 68" fill="none" xmlns="http://www.w3.org/2000/svg">
<path d="M61.9148 55.1972C62.1677 54.854 62.4693 54.4509 62.8155 53.9986C63.9883 52.4669 65.6708 50.3754 67.708 48.1378C71.8077 43.6347 77.2455 38.6508 82.7905 36.354C88.3354 34.0572 95.7047 33.7362 101.788 34.0215C104.811 34.1632 107.479 34.4524 109.392 34.7062C109.956 34.7812 110.454 34.853 110.876 34.9169C110.623 35.2601 110.322 35.6632 109.975 36.1154C108.802 37.6471 107.12 39.7387 105.083 41.9763C100.983 46.4794 95.5452 51.4633 90.0003 53.7601C84.4554 56.0569 77.086 56.3779 71.003 56.0926C67.9802 55.9509 65.3116 55.6616 63.3992 55.4078C62.8346 55.3329 62.3364 55.2611 61.9148 55.1972Z" fill="#ECB9D7" stroke="#2F6252" stroke-width="2"/>
<path d="M61.9148 55.1972C62.1677 54.854 62.4693 54.4509 62.8155 53.9986C63.9883 52.4669 65.6708 50.3754 67.708 48.1378C71.8077 43.6347 77.2455 38.6508 82.7905 36.354C88.3354 34.0572 95.7047 33.7362 101.788 34.0215C104.811 34.1632 107.479 34.4524 109.392 34.7062C109.956 34.7812 110.454 34.853 110.876 34.9169C110.623 35.2601 110.322 35.6632 109.975 36.1154C108.802 37.6471 107.12 39.7387 105.083 41.9763C100.983 46.4794 95.5452 51.4633 90.0003 53.7601C84.4554 56.0569 77.086 56.3779 71.003 56.0926C67.9802 55.9509 65.3116 55.6616 63.3992 55.4078C62.8346 55.3329 62.3364 55.2611 61.9148 55.1972Z" fill="#ECB9D7" stroke="#2F6252" stroke-width="2"/>
<path d="M54.6981 55.1972C54.2766 55.2611 53.7783 55.3329 53.2137 55.4079C51.3013 55.6617 48.6327 55.9509 45.6099 56.0926C39.5269 56.3779 32.1575 56.0569 26.6126 53.7601C21.0677 51.4633 15.6298 46.4794 11.5301 41.9763C9.49293 39.7387 7.81045 37.6472 6.63767 36.1154C6.29141 35.6632 5.98985 35.2601 5.73698 34.9169C6.15849 34.853 6.65675 34.7812 7.22137 34.7063C9.13374 34.4525 11.8024 34.1632 14.8251 34.0215C20.9082 33.7362 28.2775 34.0572 33.8224 36.354C39.3674 38.6508 44.8053 43.6347 48.9049 48.1378C50.9421 50.3754 52.6246 52.467 53.7974 53.9987C54.1436 54.4509 54.4452 54.854 54.6981 55.1972Z" fill="#ECB9D7" stroke="#2F6252" stroke-width="2"/>
<path d="M54.6981 55.1972C54.2766 55.2611 53.7783 55.3329 53.2137 55.4079C51.3013 55.6617 48.6327 55.9509 45.6099 56.0926C39.5269 56.3779 32.1575 56.0569 26.6126 53.7601C21.0677 51.4633 15.6298 46.4794 11.5301 41.9763C9.49293 39.7387 7.81045 37.6472 6.63767 36.1154C6.29141 35.6632 5.98985 35.2601 5.73698 34.9169C6.15849 34.853 6.65675 34.7812 7.22137 34.7063C9.13374 34.4525 11.8024 34.1632 14.8251 34.0215C20.9082 33.7362 28.2775 34.0572 33.8224 36.354C39.3674 38.6508 44.8053 43.6347 48.9049 48.1378C50.9421 50.3754 52.6246 52.467 53.7974 53.9987C54.1436 54.4509 54.4452 54.854 54.6981 55.1972Z" fill="#ECB9D7" stroke="#2F6252" stroke-width="2"/>
<path d="M57.8534 54.7734C57.7895 54.3519 57.7177 53.8536 57.6428 53.289C57.389 51.3766 57.0998 48.708 56.958 45.6853C56.6728 39.6022 56.9938 32.2328 59.2905 26.6879C61.5873 21.143 66.5713 15.7051 71.0744 11.6054C73.312 9.56825 75.4035 7.88577 76.9352 6.71298C77.3874 6.36673 77.7905 6.06516 78.1338 5.8123C78.1977 6.2338 78.2695 6.73207 78.3444 7.29669C78.5982 9.20905 78.8874 11.8777 79.0292 14.9004C79.3144 20.9835 78.9934 28.3528 76.6967 33.8978C74.3999 39.4427 69.4159 44.8806 64.9128 48.9803C62.6752 51.0174 60.5837 52.6999 59.052 53.8727C58.5997 54.219 58.1967 54.5205 57.8534 54.7734Z" fill="#ECB9D7" stroke="#2F6252" stroke-width="2"/>
<path d="M57.8534 54.7734C57.7895 54.3519 57.7177 53.8536 57.6428 53.289C57.389 51.3766 57.0998 48.708 56.958 45.6853C56.6728 39.6022 56.9938 32.2328 59.2905 26.6879C61.5873 21.143 66.5713 15.7051 71.0744 11.6054C73.312 9.56825 75.4035 7.88577 76.9352 6.71298C77.3874 6.36673 77.7905 6.06516 78.1338 5.8123C78.1977 6.2338 78.2695 6.73207 78.3444 7.29669C78.5982 9.20905 78.8874 11.8777 79.0292 14.9004C79.3144 20.9835 78.9934 28.3528 76.6967 33.8978C74.3999 39.4427 69.4159 44.8806 64.9128 48.9803C62.6752 51.0174 60.5837 52.6999 59.052 53.8727C58.5997 54.219 58.1967 54.5205 57.8534 54.7734Z" fill="#ECB9D7" stroke="#2F6252" stroke-width="2"/>
<path d="M56.0966 56.7317C55.7316 56.9521 55.2988 57.2091 54.8058 57.4944C53.1361 58.4607 50.7813 59.7491 48.0429 61.0369C42.5321 63.6283 35.6008 66.1519 29.5991 66.1519C23.5973 66.1519 16.666 63.6283 11.1552 61.0369C8.41678 59.7491 6.06198 58.4607 4.39231 57.4944C3.89934 57.2091 3.46648 56.9521 3.10151 56.7317C3.46648 56.5114 3.89934 56.2544 4.39231 55.9691C6.06198 55.0028 8.41678 53.7143 11.1552 52.4266C16.666 49.8352 23.5973 47.3116 29.5991 47.3116C35.6008 47.3116 42.5321 49.8352 48.0429 52.4266C50.7813 53.7143 53.1361 55.0028 54.8058 55.9691C55.2988 56.2544 55.7316 56.5114 56.0966 56.7317Z" fill="#ECB9D7" stroke="#2F6252" stroke-width="2"/>
<path d="M56.0966 56.7317C55.7316 56.9521 55.2988 57.2091 54.8058 57.4944C53.1361 58.4607 50.7813 59.7491 48.0429 61.0369C42.5321 63.6283 35.6008 66.1519 29.5991 66.1519C23.5973 66.1519 16.666 63.6283 11.1552 61.0369C8.41678 59.7491 6.06198 58.4607 4.39231 57.4944C3.89934 57.2091 3.46648 56.9521 3.10151 56.7317C3.46648 56.5114 3.89934 56.2544 4.39231 55.9691C6.06198 55.0028 8.41678 53.7143 11.1552 52.4266C16.666 49.8352 23.5973 47.3116 29.5991 47.3116C35.6008 47.3116 42.5321 49.8352 48.0429 52.4266C50.7813 53.7143 53.1361 55.0028 54.8058 55.9691C55.2988 56.2544 55.7316 56.5114 56.0966 56.7317Z" fill="#ECB9D7" stroke="#2F6252" stroke-width="2"/>
<path d="M112.879 56.7317C112.514 56.9521 112.081 57.2091 111.588 57.4944C109.918 58.4607 107.564 59.7491 104.825 61.0369C99.3143 63.6283 92.3831 66.1519 86.3813 66.1519C80.3795 66.1519 73.4483 63.6283 67.9374 61.0369C65.199 59.7491 62.8442 58.4607 61.1745 57.4944C60.6816 57.2091 60.2487 56.9521 59.8837 56.7317C60.2487 56.5114 60.6816 56.2544 61.1745 55.9691C62.8442 55.0028 65.199 53.7143 67.9374 52.4266C73.4483 49.8352 80.3795 47.3116 86.3813 47.3116C92.3831 47.3116 99.3143 49.8352 104.825 52.4266C107.564 53.7143 109.918 55.0028 111.588 55.9691C112.081 56.2544 112.514 56.5114 112.879 56.7317Z" fill="#ECB9D7" stroke="#2F6252" stroke-width="2"/>
<path d="M112.879 56.7317C112.514 56.9521 112.081 57.2091 111.588 57.4944C109.918 58.4607 107.564 59.7491 104.825 61.0369C99.3143 63.6283 92.3831 66.1519 86.3813 66.1519C80.3795 66.1519 73.4483 63.6283 67.9374 61.0369C65.199 59.7491 62.8442 58.4607 61.1745 57.4944C60.6816 57.2091 60.2487 56.9521 59.8837 56.7317C60.2487 56.5114 60.6816 56.2544 61.1745 55.9691C62.8442 55.0028 65.199 53.7143 67.9374 52.4266C73.4483 49.8352 80.3795 47.3116 86.3813 47.3116C92.3831 47.3116 99.3143 49.8352 104.825 52.4266C107.564 53.7143 109.918 55.0028 111.588 55.9691C112.081 56.2544 112.514 56.5114 112.879 56.7317Z" fill="#ECB9D7" stroke="#2F6252" stroke-width="2"/>
<path d="M57.6133 55.1007C57.2701 54.8478 56.867 54.5463 56.4148 54.2C54.8831 53.0272 52.7915 51.3448 50.5539 49.3076C46.0508 45.2079 41.0669 39.77 38.7701 34.2251C36.4733 28.6802 36.1523 21.3108 36.4376 15.2278C36.5793 12.205 36.8686 9.53639 37.1224 7.62402C37.1973 7.0594 37.2691 6.56114 37.333 6.13963C37.6762 6.3925 38.0793 6.69406 38.5316 7.04032C40.0633 8.2131 42.1548 9.89558 44.3924 11.9328C48.8955 16.0324 53.8794 21.4703 56.1762 27.0152C58.473 32.5602 58.794 39.9295 58.5087 46.0126C58.367 49.0353 58.0778 51.704 57.824 53.6163C57.749 54.1809 57.6772 54.6792 57.6133 55.1007Z" fill="#ECB9D7" stroke="#2F6252" stroke-width="2"/>
<path d="M57.6133 55.1007C57.2701 54.8478 56.867 54.5463 56.4148 54.2C54.8831 53.0272 52.7915 51.3448 50.5539 49.3076C46.0508 45.2079 41.0669 39.77 38.7701 34.2251C36.4733 28.6802 36.1523 21.3108 36.4376 15.2278C36.5793 12.205 36.8686 9.53639 37.1224 7.62402C37.1973 7.0594 37.2691 6.56114 37.333 6.13963C37.6762 6.3925 38.0793 6.69406 38.5316 7.04032C40.0633 8.2131 42.1548 9.89558 44.3924 11.9328C48.8955 16.0324 53.8794 21.4703 56.1762 27.0152C58.473 32.5602 58.794 39.9295 58.5087 46.0126C58.367 49.0353 58.0778 51.704 57.824 53.6163C57.749 54.1809 57.6772 54.6792 57.6133 55.1007Z" fill="#ECB9D7" stroke="#2F6252" stroke-width="2"/>
<path d="M56.5499 55.4426C56.136 55.3403 55.6482 55.2159 55.0979 55.0691C53.2339 54.5718 50.6578 53.8177 47.8109 52.7919C42.0817 50.7276 35.3961 47.6109 31.1522 43.367C26.9083 39.1231 23.7917 32.4375 21.7273 26.7084C20.7015 23.8615 19.9475 21.2853 19.4501 19.4214C19.3033 18.8711 19.1789 18.3832 19.0767 17.9694C19.4906 18.0716 19.9784 18.196 20.5287 18.3428C22.3926 18.8402 24.9688 19.5942 27.8157 20.62C33.5448 22.6844 40.2304 25.801 44.4743 30.0449C48.7182 34.2888 51.8349 40.9744 53.8992 46.7036C54.925 49.5505 55.6791 52.1266 56.1764 53.9906C56.3232 54.5409 56.4476 55.0287 56.5499 55.4426Z" fill="#ECB9D7" stroke="#2F6252" stroke-width="2"/>
<path d="M56.5499 55.4426C56.136 55.3403 55.6482 55.2159 55.0979 55.0691C53.2339 54.5718 50.6578 53.8177 47.8109 52.7919C42.0817 50.7276 35.3961 47.6109 31.1522 43.367C26.9083 39.1231 23.7917 32.4375 21.7273 26.7084C20.7015 23.8615 19.9475 21.2853 19.4501 19.4214C19.3033 18.8711 19.1789 18.3832 19.0767 17.9694C19.4906 18.0716 19.9784 18.196 20.5287 18.3428C22.3926 18.8402 24.9688 19.5942 27.8157 20.62C33.5448 22.6844 40.2304 25.801 44.4743 30.0449C48.7182 34.2888 51.8349 40.9744 53.8992 46.7036C54.925 49.5505 55.6791 52.1266 56.1764 53.9906C56.3232 54.5409 56.4476 55.0287 56.5499 55.4426Z" fill="#ECB9D7" stroke="#2F6252" stroke-width="2"/>
<path d="M59.247 55.4426C59.3492 55.0287 59.4736 54.5409 59.6204 53.9906C60.1178 52.1266 60.8718 49.5505 61.8976 46.7036C63.9619 40.9744 67.0786 34.2888 71.3225 30.0449C75.5664 25.801 82.252 22.6844 87.9812 20.62C90.828 19.5942 93.4042 18.8402 95.2681 18.3428C95.8185 18.196 96.3063 18.0716 96.7201 17.9694C96.6179 18.3833 96.4935 18.8711 96.3467 19.4214C95.8493 21.2853 95.0953 23.8615 94.0695 26.7084C92.0052 32.4375 88.8885 39.1231 84.6446 43.367C80.4007 47.6109 73.7151 50.7276 67.9859 52.7919C65.1391 53.8177 62.5629 54.5718 60.699 55.0691C60.1486 55.2159 59.6608 55.3403 59.247 55.4426Z" fill="#ECB9D7" stroke="#2F6252" stroke-width="2"/>
<path d="M59.247 55.4426C59.3492 55.0287 59.4736 54.5409 59.6204 53.9906C60.1178 52.1266 60.8718 49.5505 61.8976 46.7036C63.9619 40.9744 67.0786 34.2888 71.3225 30.0449C75.5664 25.801 82.252 22.6844 87.9812 20.62C90.828 19.5942 93.4042 18.8402 95.2681 18.3428C95.8185 18.196 96.3063 18.0716 96.7201 17.9694C96.6179 18.3833 96.4935 18.8711 96.3467 19.4214C95.8493 21.2853 95.0953 23.8615 94.0695 26.7084C92.0052 32.4375 88.8885 39.1231 84.6446 43.367C80.4007 47.6109 73.7151 50.7276 67.9859 52.7919C65.1391 53.8177 62.5629 54.5718 60.699 55.0691C60.1486 55.2159 59.6608 55.3403 59.247 55.4426Z" fill="#ECB9D7" stroke="#2F6252" stroke-width="2"/>
<path d="M57.9401 54.8886C57.7198 54.5236 57.4628 54.0908 57.1775 53.5978C56.2112 51.9281 54.9227 49.5733 53.635 46.8349C51.0436 41.3241 48.52 34.3928 48.52 28.3911C48.52 22.3893 51.0436 15.458 53.635 9.94718C54.9227 7.20877 56.2112 4.85397 57.1775 3.1843C57.4628 2.69134 57.7198 2.25847 57.9401 1.8935C58.1605 2.25847 58.4175 2.69134 58.7028 3.1843C59.6691 4.85397 60.9576 7.20877 62.2453 9.94718C64.8367 15.458 67.3603 22.3893 67.3603 28.3911C67.3603 34.3928 64.8367 41.3241 62.2453 46.8349C60.9576 49.5733 59.6691 51.9281 58.7028 53.5978C58.4175 54.0908 58.1605 54.5236 57.9401 54.8886Z" fill="#ECB9D7" stroke="#2F6252" stroke-width="2"/>
<path d="M57.9401 54.8886C57.7198 54.5236 57.4628 54.0908 57.1775 53.5978C56.2112 51.9281 54.9227 49.5733 53.635 46.8349C51.0436 41.3241 48.52 34.3928 48.52 28.3911C48.52 22.3893 51.0436 15.458 53.635 9.94718C54.9227 7.20877 56.2112 4.85397 57.1775 3.1843C57.4628 2.69134 57.7198 2.25847 57.9401 1.8935C58.1605 2.25847 58.4175 2.69134 58.7028 3.1843C59.6691 4.85397 60.9576 7.20877 62.2453 9.94718C64.8367 15.458 67.3603 22.3893 67.3603 28.3911C67.3603 34.3928 64.8367 41.3241 62.2453 46.8349C60.9576 49.5733 59.6691 51.9281 58.7028 53.5978C58.4175 54.0908 58.1605 54.5236 57.9401 54.8886Z" fill="#ECB9D7" stroke="#2F6252" stroke-width="2"/>
</svg>
